<svg xmlns="http://www.w3.org/2000/svg" class="w-6 h-6" fill="currentColor" viewBox="0 0 24 24">
    <path d="M12 .5C5.37.5 0 5.87 0 12.5a12 12 0 0 0 8.21 11.43c.6.11.82-.26.82-.58v-2.05c-3.34.73-4.04-1.61-4.04-1.61-.55-1.38-1.34-1.74-1.34-1.74-1.1-.75.09-.74.09-.74 1.22.09 1.86 1.26 1.86 1.26 1.08 1.86 2.84 1.32 3.54 1.01.11-.78.42-1.32.76-1.63-2.66-.3-5.47-1.33-5.47-5.94 0-1.31.47-2.38 1.24-3.22-.12-.3-.54-1.52.12-3.17 0 0 1-.32 3.3 1.23a11.3 11.3 0 0 1 6 0c2.3-1.55 3.3-1.23 3.3-1.23.66 1.65.24 2.87.12 3.17.77.84 1.24 1.91 1.24 3.22 0 4.62-2.81 5.64-5.48 5.94.43.38.81 1.13.81 2.28v3.38c0 .32.21.69.82.58A12 12 0 0 0 24 12.5C24 5.87 18.63.5 12 .5Z" />
</svg>